<?xml version="1.0" standalone="no"?><!DOCTYPE svg PUBLIC "-//W3C//DTD SVG 1.1//EN" "http://www.w3.org/Graphics/SVG/1.1/DTD/svg11.dtd"><svg t="1709545985366" class="icon" viewBox="0 0 1024 1024" version="1.1" xmlns="http://www.w3.org/2000/svg" p-id="4247" width="32" height="32" xmlns:xlink="http://www.w3.org/1999/xlink"><path d="M575.8208 734.72V384.73728c0-40.7808 63.80032-40.7808 63.80032 0V734.72c0 40.7808-63.80032 40.7808-63.80032 0z m-191.44704 0V384.73728c0-40.7808 63.82592-40.7808 63.82592 0V734.72c-0.00512 40.7808-63.82592 40.7808-63.82592 0z m542.41792-509.07136h-159.52896V161.99168c0-52.69504-42.89024-95.43168-94.73024-95.43168H352.47616c-52.84864 0-95.7184 42.73664-95.7184 95.43168v63.66208H97.2288c-40.88832 0-40.88832 63.60576 0 63.60576h829.56288c40.86784-0.00512 40.86784-63.61088 0-63.61088zM320.57344 161.99168c0-16.90112 14.94528-31.83104 31.8976-31.83104h320.05632c16.95232 0 30.90944 12.93312 30.90944 31.83104v63.66208H320.57344V161.99168zM735.33952 957.44H288.64512c-52.81792 0-95.68768-42.7264-95.68768-95.43168V384.73728c0-18.8928 14.94528-31.83104 31.89248-31.83104 16.95744 0 31.89248 12.93312 31.89248 31.83104v477.27616c0 16.8704 14.98112 31.80032 31.8976 31.80032h446.6944c16.95232 0 31.91808-14.92992 31.91808-31.80032V385.72544c0-41.77408 63.80032-41.77408 63.80032 0v476.28288c0.00512 52.70528-42.8544 95.43168-95.71328 95.43168z" fill="#1296db" p-id="4248"></path></svg>