<?xml version="1.0" standalone="no"?><!DOCTYPE svg PUBLIC "-//W3C//DTD SVG 1.1//EN" "http://www.w3.org/Graphics/SVG/1.1/DTD/svg11.dtd"><svg t="1707288544668" class="icon" viewBox="0 0 1024 1024" version="1.1" xmlns="http://www.w3.org/2000/svg" p-id="6256" xmlns:xlink="http://www.w3.org/1999/xlink" width="32" height="32"><path d="M575.943755 0C328.967874 0 127.987501 200.980373 127.987501 447.956254c0 109.689288 39.696123 210.379455 105.389708 288.271849l-54.194707 54.194707-87.991407-87.991407c-14.998535-14.998535-39.296162-14.998535-54.294698 0s-14.998535 39.296162 0 54.294698l88.091397 87.991407L11.298897 958.406406c-14.998535 14.998535-14.998535 39.296162 0 54.294697 7.499268 7.499268 17.298311 11.298897 27.197344 11.298897 9.799043 0 19.598086-3.799629 27.097353-11.298897l113.688898-113.688897 87.991407 87.991407c7.499268 7.499268 17.298311 11.298897 27.197344 11.298897 9.799043 0 19.598086-3.799629 27.097354-11.298897 14.998535-14.998535 14.998535-39.296162 0-54.294698l-87.991407-87.991407 54.194707-54.194707C365.5643 856.216385 466.254467 895.912509 575.943755 895.912509c246.975881 0 447.956254-200.980373 447.956255-447.956255S822.919637 0 575.943755 0z m0 819.120008c-204.680012 0-371.163754-166.483742-371.163753-371.163754S371.263744 76.792501 575.943755 76.792501 947.107509 243.276243 947.107509 447.956254 780.623767 819.120008 575.943755 819.120008z" fill="#d4237a" p-id="6257"></path></svg>