<?xml version="1.0" standalone="no"?><!DOCTYPE svg PUBLIC "-//W3C//DTD SVG 1.1//EN" "http://www.w3.org/Graphics/SVG/1.1/DTD/svg11.dtd"><svg t="1707211563695" class="icon" viewBox="0 0 1024 1024" version="1.1" xmlns="http://www.w3.org/2000/svg" p-id="10056" xmlns:xlink="http://www.w3.org/1999/xlink" width="32" height="32"><path d="M856.1 166H167.9c-22 0-39.9 17.9-39.9 39.9v473.9c0 22 17.9 39.9 39.9 39.9h189.2l126.6 126.6c7.5 7.5 17.6 11.7 28.2 11.7s20.7-4.2 28.2-11.7l126.6-126.6h189.2c22 0 39.9-17.9 39.9-39.9V205.9c0.2-22-17.7-39.9-39.7-39.9z m-10.7 503.2h-183c-10.7 0-20.7 4.2-28.2 11.7L512 803 389.9 680.9c-7.5-7.5-17.6-11.7-28.2-11.7h-183V216.6h666.8v452.6z" fill="#1296db" p-id="10057"></path><path d="M357.1 453.5c14 0 25.3-11.3 25.3-25.3s-11.3-25.3-25.3-25.3h-0.1c-14 0-25.3 11.3-25.3 25.3s11.4 25.3 25.4 25.3zM512 453.5c14 0 25.3-11.3 25.3-25.3S526 402.9 512 402.9s-25.3 11.3-25.3 25.3 11.3 25.3 25.3 25.3zM668.9 453.5c14 0 25.3-11.3 25.3-25.3s-11.3-25.3-25.3-25.3h-0.1c-14 0-25.3 11.3-25.3 25.3s11.4 25.3 25.4 25.3z" fill="#1296db" p-id="10058"></path></svg>