<?xml version="1.0" standalone="no"?><!DOCTYPE svg PUBLIC "-//W3C//DTD SVG 1.1//EN" "http://www.w3.org/Graphics/SVG/1.1/DTD/svg11.dtd"><svg t="1707288486944" class="icon" viewBox="0 0 1024 1024" version="1.1" xmlns="http://www.w3.org/2000/svg" p-id="4275" xmlns:xlink="http://www.w3.org/1999/xlink" width="32" height="32"><path d="M872.335 421.516V151.71H602.528L702.949 252.13 601.4 353.68c-46.47-32.81-103.174-52.091-164.385-52.091-157.595 0-285.351 127.756-285.351 285.35S279.421 872.29 437.014 872.29s285.352-127.755 285.352-285.35c0-57.78-17.19-111.537-46.711-156.47l102.818-102.814 93.862 93.861zM437.015 782.18c-107.827 0-195.24-87.413-195.24-195.24s87.413-195.24 195.24-195.24 195.24 87.413 195.24 195.24-87.413 195.24-195.24 195.24z" fill="#1296DB" p-id="4276"></path></svg>