<?xml version="1.0" standalone="no"?><!DOCTYPE svg PUBLIC "-//W3C//DTD SVG 1.1//EN" "http://www.w3.org/Graphics/SVG/1.1/DTD/svg11.dtd"><svg t="1709106480101" class="icon" viewBox="0 0 1024 1024" version="1.1" xmlns="http://www.w3.org/2000/svg" p-id="11847" width="128" height="128" xmlns:xlink="http://www.w3.org/1999/xlink"><path d="M817.2 93h-436c-28.4 0-51.6 23-51.6 51.4v35.8c-129.2 25-226.8 142.2-226.8 283s97.8 258 226.8 283v128.4c0 28.4 23 51.4 51.6 51.4h587.8c28.4 0 51.6-23 51.6-51.4v-576L817.2 93zM381 689.4c-125.2 0-226.8-101.4-226.8-226.2 0-125 101.6-226.2 226.8-226.2 125.2 0 226.8 101.2 226.8 226.2 0.2 125-101.4 226.2-226.8 226.2z m577.6 174.8H391.4v-113.4c41.4-1.6 80.4-12.4 115.2-30.6h338.6c11.4 0 20.6-9.2 20.6-20.6v-20.6c0-11.4-9.2-20.6-20.6-20.6H585.6c16.6-18.4 30.8-39.2 42.2-61.8h217.4c11.4 0 20.6-9.2 20.6-20.6v-20.6c0-11.4-9.2-20.6-20.6-20.6h-194.4c5.8-23 8.8-47.2 8.8-72h185.6c11.4 0 20.6-9.2 20.6-20.6V422c0-11.4-9.2-20.6-20.6-20.6h-192c-26.6-126-133-221.2-261.6-226V154.6H770l3 2.8V350h185.6v514.2zM196.6 737L102.2 846c-7.4 8.6-20.4 9.6-29 2.2L10.8 794.4C2.2 787 1.2 774 8.6 765.4l94.4-109c7.4-8.6 20.4-9.6 29-2.2L194.4 708c8.8 7.4 9.6 20.4 2.2 29z" p-id="11848" fill="#2c2c2c"></path></svg>