<?xml version="1.0" standalone="no"?><!DOCTYPE svg PUBLIC "-//W3C//DTD SVG 1.1//EN" "http://www.w3.org/Graphics/SVG/1.1/DTD/svg11.dtd"><svg t="1709777501618" class="icon" viewBox="0 0 1024 1024" version="1.1" xmlns="http://www.w3.org/2000/svg" p-id="6101" width="128" height="128" xmlns:xlink="http://www.w3.org/1999/xlink"><path d="M234.666667 448c0-153.173333 124.16-277.333333 277.333333-277.333333s277.333333 124.16 277.333333 277.333333v277.333333h-42.666666V448c0-129.6-105.066667-234.666667-234.666667-234.666667s-234.666667 105.066667-234.666667 234.666667v277.333333h-42.666666V448z" fill="#000000" p-id="6102"></path><path d="M128 725.333333a21.333333 21.333333 0 0 1 21.333333-21.333333h725.333334a21.333333 21.333333 0 1 1 0 42.666667H149.333333a21.333333 21.333333 0 0 1-21.333333-21.333334zM669.248 812.202667a21.333333 21.333333 0 0 1 11.904 27.733333c-25.728 64.298667-97.301333 95.957333-164.693333 97.386667-67.904 1.450667-141.824-27.456-173.226667-96.490667a21.333333 21.333333 0 1 1 38.848-17.664c21.973333 48.298667 76.032 72.725333 133.461333 71.509333 57.941333-1.237333 109.034667-28.245333 125.973334-70.613333a21.333333 21.333333 0 0 1 27.733333-11.861333z" fill="#000000" p-id="6103"></path><path d="M554.666667 149.333333a42.666667 42.666667 0 1 1-85.333334 0 42.666667 42.666667 0 0 1 85.333334 0z" fill="#000000" p-id="6104"></path></svg>