<?xml version="1.0" standalone="no"?><!DOCTYPE svg PUBLIC "-//W3C//DTD SVG 1.1//EN" "http://www.w3.org/Graphics/SVG/1.1/DTD/svg11.dtd"><svg t="1708162579579" class="icon" viewBox="0 0 1024 1024" version="1.1" xmlns="http://www.w3.org/2000/svg" p-id="5224" width="32" height="32" xmlns:xlink="http://www.w3.org/1999/xlink"><path d="M944.355556 233.244444l-153.6-153.6c-17.066667-11.377778-39.822222-22.755556-62.577778-22.755555-22.755556 0-45.511111 11.377778-62.577778 22.755555L91.022222 659.911111V910.222222c0 11.377778 11.377778 22.755556 22.755556 22.755556h250.311111L944.355556 358.4c28.444444-34.133333 34.133333-91.022222 0-125.155556zM329.955556 847.644444H176.355556v-153.6l420.977777-420.977777 153.6 153.6-420.977777 420.977777z m483.555555-483.555555l-153.6-153.6 68.266667-68.266667 153.6 153.6-68.266667 68.266667zM904.533333 847.644444h-312.888889c-22.755556 0-45.511111 17.066667-45.511111 45.511112 0 22.755556 17.066667 45.511111 45.511111 45.511111h312.888889c22.755556 0 39.822222-17.066667 39.822223-45.511111s-17.066667-45.511111-39.822223-45.511112z" fill="#595959" p-id="5225"></path></svg>