<?xml version="1.0" standalone="no"?><!DOCTYPE svg PUBLIC "-//W3C//DTD SVG 1.1//EN" "http://www.w3.org/Graphics/SVG/1.1/DTD/svg11.dtd"><svg t="1708157645878" class="icon" viewBox="0 0 1024 1024" version="1.1" xmlns="http://www.w3.org/2000/svg" p-id="8337" width="32" height="32" xmlns:xlink="http://www.w3.org/1999/xlink"><path d="M366.08 53.12L773.12 479.36000001c9.6 11.52 13.44 24.96 13.44 36.47999999 0 13.44000001-3.84000001 26.88-13.43999999 36.48L366.08 970.88c-19.2 24.96-55.68 26.88-78.72 7.68-13.44-11.52-19.2-26.88-19.2-44.16 0-13.44000001 3.84000001-26.88 13.44-36.48l378.24-382.08L281.60000001 124.16c-9.6-11.52-13.44-23.04-13.44000001-36.48 0-15.36 7.68-32.64 19.2-44.16 23.04-19.19999999 57.6-15.36 78.72 9.6z m0 0" p-id="8338"></path></svg>