<?xml version="1.0" standalone="no"?><!DOCTYPE svg PUBLIC "-//W3C//DTD SVG 1.1//EN" "http://www.w3.org/Graphics/SVG/1.1/DTD/svg11.dtd"><svg t="1709106531170" class="icon" viewBox="0 0 1057 1024" version="1.1" xmlns="http://www.w3.org/2000/svg" p-id="14318" width="132.125" height="128" xmlns:xlink="http://www.w3.org/1999/xlink"><path d="M266.603355 364.544l-182.932645 199.052387h305.085935a139.759484 139.759484 0 1 0 279.518968 0h306.242064L792.774194 364.544H266.603355zM544.503742 18.993548c9.94271 0 18.332903 7.399226 19.555097 17.275871v192.908387a19.687226 19.687226 0 0 1-19.687226 19.356904 19.687226 19.687226 0 0 1-19.389936-19.356904v-192.908387a19.687226 19.687226 0 0 1 19.522065-17.275871zM899.79871 92.787613c7.597419 7.531355 7.696516 19.819355 0.132129 27.449806l-121.228387 122.747871a19.951484 19.951484 0 0 1-27.614968 0h-1.189161a19.951484 19.951484 0 0 1 0-27.614967l122.45058-122.450581c7.531355-7.597419 19.819355-7.663484 27.449807-0.132129zM214.049032 87.700645a19.422968 19.422968 0 0 1 18.795355 4.954839l122.450581 122.714839a19.389935 19.389935 0 1 1-27.317678 27.614967L205.52671 120.237419a19.422968 19.422968 0 0 1 8.522322-32.536774z m595.472516 237.171613l218.145033 238.724129v437.809548H29.39871V563.596387l219.928774-238.691097h560.227097z" fill="#2c2c2c" p-id="14319"></path></svg>