<?xml version="1.0" standalone="no"?><!DOCTYPE svg PUBLIC "-//W3C//DTD SVG 1.1//EN" "http://www.w3.org/Graphics/SVG/1.1/DTD/svg11.dtd"><svg t="1710984353611" class="icon" viewBox="0 0 1024 1024" version="1.1" xmlns="http://www.w3.org/2000/svg" p-id="4395" width="64" height="64" xmlns:xlink="http://www.w3.org/1999/xlink"><path d="M728.7 475.1m-31.3 0a31.3 31.3 0 1 0 62.6 0 31.3 31.3 0 1 0-62.6 0Z" fill="#ffffff" p-id="4396"></path><path d="M826.4 773.7H215.1c-22.4 0-40.6-18.2-40.6-40.6V404.3c0-22.4 18.2-40.6 40.6-40.6h142.5l64.5-77.6c7.7-9.3 19.1-14.7 31.2-14.7h131.1c10.8 0 21.4 4.4 29 12.2l78.5 80.1h134.6c22.4 0 40.6 18.2 40.6 40.6v328.8c-0.2 22.4-18.4 40.6-40.7 40.6z m-608.1-43.8h604.9V407.5H690.4c-10.8 0-21.4-4.4-29-12.2l-78.5-80.1H454.7l-64.5 77.6c-7.7 9.3-19.1 14.7-31.2 14.7H218.3v322.4z" fill="#ffffff" p-id="4397"></path><path d="M523.3 677.9c-68.6 0-124.5-55.8-124.5-124.5 0-68.6 55.8-124.5 124.5-124.5s124.5 55.8 124.5 124.5c-0.1 68.7-55.9 124.5-124.5 124.5z m0-219.4c-52.4 0-95 42.6-95 95s42.6 95 95 95 95-42.6 95-95c-0.1-52.4-42.7-95-95-95z" fill="#ffffff" p-id="4398"></path></svg>